<svg width="134" height="134" viewBox="0 0 134 134" fill="none" xmlns="http://www.w3.org/2000/svg">
<path d="M57.4533 21.5511L10.1625 100.499C9.18743 102.188 8.67152 104.102 8.66606 106.052C8.6606 108.002 9.16578 109.919 10.1313 111.613C11.0969 113.307 12.4892 114.719 14.1697 115.708C15.8501 116.696 17.7603 117.228 19.71 117.249H114.292C116.241 117.228 118.151 116.696 119.832 115.708C121.512 114.719 122.905 113.307 123.87 111.613C124.836 109.919 125.341 108.002 125.336 106.052C125.33 104.102 124.814 102.188 123.839 100.499L76.5483 21.5511C75.5529 19.9102 74.1515 18.5535 72.4791 17.612C70.8068 16.6704 68.92 16.1758 67.0008 16.1758C65.0816 16.1758 63.1948 16.6704 61.5224 17.612C59.8501 18.5535 58.4486 19.9102 57.4533 21.5511Z" stroke="#FF0000" stroke-width="6" stroke-linecap="round" stroke-linejoin="round"/>
<path d="M67 50.25V72.5833" stroke="#FF0000" stroke-width="6" stroke-linecap="round" stroke-linejoin="round"/>
<path d="M67 94.916H67.055" stroke="#FF0000" stroke-width="6" stroke-linecap="round" stroke-linejoin="round"/>
</svg>
