<svg width="21" height="21" viewBox="0 0 21 21" fill="none" xmlns="http://www.w3.org/2000/svg">
<g clip-path="url(#clip0_378_1841)">
<path d="M9.52931 4.80232C9.52931 5.51682 9.57877 6.23549 9.51918 6.94523C9.39403 8.44097 8.20154 9.52672 6.69796 9.54699C5.41727 9.56427 4.13598 9.56546 2.85529 9.54699C1.25219 9.52375 0.0239456 8.28126 0.00845093 6.67826C-0.00346802 5.41254 -0.00346802 4.14622 0.00845093 2.8805C0.0245415 1.27689 1.25398 0.034414 2.85648 0.0129611C4.13718 -0.00432037 5.41846 -0.00432037 6.69915 0.0129611C8.30047 0.0350099 9.52335 1.27511 9.54719 2.88109C9.55672 3.52111 9.54897 4.16171 9.54897 4.80232C9.54242 4.80232 9.53586 4.80232 9.52931 4.80232ZM7.63837 4.78802C7.63837 4.17721 7.63956 3.56699 7.63777 2.95618C7.63598 2.31557 7.24683 1.92108 6.61215 1.92048C5.39105 1.91869 4.16936 1.91869 2.94826 1.92048C2.3106 1.92108 1.91846 2.31319 1.91787 2.95141C1.91608 4.17244 1.91608 5.39406 1.91787 6.61509C1.91846 7.2402 2.31238 7.63887 2.93217 7.64006C4.16101 7.64245 5.38986 7.64245 6.6187 7.64006C7.24087 7.63887 7.63598 7.24259 7.63837 6.62045C7.64015 6.00905 7.63837 5.39883 7.63837 4.78802Z" fill="#031A61"/>
<path d="M11.4675 4.78005C11.4675 4.0578 11.4169 3.33138 11.4782 2.61509C11.6058 1.11577 12.7965 0.0324038 14.2983 0.0127386C15.579 -0.00394695 16.8602 -0.00454286 18.1409 0.0127386C19.7339 0.0341915 20.9639 1.26297 20.9872 2.85763C21.0057 4.13825 21.0051 5.41946 20.9872 6.70008C20.9651 8.29356 19.7357 9.52412 18.1421 9.54676C16.8614 9.56524 15.5801 9.56524 14.2995 9.54676C12.6964 9.52412 11.4723 8.28164 11.4508 6.67923C11.4425 6.04637 11.4496 5.41351 11.4496 4.78005C11.455 4.78005 11.461 4.78005 11.4675 4.78005ZM19.0807 4.80031C19.0807 4.18235 19.0825 3.56438 19.0801 2.94583C19.0784 2.31952 18.6862 1.92085 18.067 1.92026C16.831 1.91787 15.5944 1.91787 14.3584 1.92026C13.7637 1.92145 13.362 2.3225 13.3608 2.91603C13.3579 4.1597 13.3579 5.40337 13.3608 6.64705C13.3626 7.23879 13.7661 7.63805 14.362 7.63924C15.598 7.64222 16.8346 7.64163 18.0706 7.63924C18.6791 7.63805 19.0772 7.23879 19.0801 6.63215C19.0825 6.02134 19.0807 5.41053 19.0807 4.80031Z" fill="#031A61"/>
<path d="M0.0248276 16.2025C0.0248276 15.488 -0.025232 14.7687 0.0349587 14.0596C0.163087 12.5584 1.35081 11.4751 2.8526 11.4542C4.13329 11.4369 5.41458 11.4375 6.69527 11.4536C8.28883 11.4739 9.52065 12.7009 9.54449 14.2955C9.56356 15.5762 9.56237 16.8574 9.54509 18.138C9.52363 19.741 8.28466 20.971 6.68097 20.9888C5.41517 21.0025 4.14878 21.0019 2.88299 20.9894C1.25963 20.9733 0.0248276 19.7255 0.00814104 18.101C0.00158561 17.4682 0.00694914 16.8353 0.00694914 16.2019C0.0129086 16.2025 0.0188681 16.2025 0.0248276 16.2025ZM4.77215 19.0819C5.39014 19.0819 6.00814 19.0837 6.62673 19.0813C7.23579 19.0789 7.63687 18.6821 7.63806 18.0754C7.64044 16.8395 7.64044 15.603 7.63806 14.367C7.63687 13.7604 7.23639 13.3629 6.62673 13.3617C5.39789 13.3594 4.16905 13.3599 2.9402 13.3617C2.31565 13.3629 1.91934 13.7568 1.91815 14.3784C1.91637 15.6071 1.91637 16.8359 1.91815 18.0647C1.91934 18.6862 2.31565 19.0795 2.9402 19.0819C3.55105 19.0831 4.1613 19.0819 4.77215 19.0819Z" fill="#031A61"/>
<path d="M16.2206 20.9735C15.4983 20.9735 14.7725 21.023 14.0555 20.9634C12.5681 20.8394 11.4787 19.6553 11.4548 18.1655C11.434 16.87 11.4334 15.5739 11.4548 14.2784C11.4805 12.698 12.7135 11.4764 14.2987 11.4544C15.5794 11.4371 16.8607 11.4371 18.1414 11.4544C19.7343 11.4758 20.965 12.704 20.9876 14.2993C21.0061 15.5799 21.0055 16.8611 20.9876 18.1417C20.965 19.7447 19.7248 20.9675 18.1205 20.9908C17.4876 20.9997 16.8547 20.9926 16.2212 20.9926C16.2206 20.986 16.2206 20.9795 16.2206 20.9735ZM13.3595 16.2217C13.3595 16.8396 13.3571 17.4576 13.3601 18.0762C13.3631 18.6828 13.7617 19.0803 14.3714 19.0815C15.6074 19.0839 16.844 19.0844 18.08 19.0815C18.6747 19.0803 19.0776 18.6792 19.0794 18.0869C19.0824 16.8432 19.0824 15.5995 19.0794 14.3559C19.0776 13.7635 18.6747 13.3637 18.0794 13.3625C16.8434 13.3595 15.6068 13.3601 14.3708 13.3625C13.7611 13.3637 13.3631 13.7611 13.3607 14.3684C13.3571 14.9858 13.3595 15.6037 13.3595 16.2217Z" fill="#031A61"/>
</g>
<defs>
<clipPath id="clip0_378_1841">
<rect width="21" height="21" fill="white"/>
</clipPath>
</defs>
</svg>
