<svg width="18" height="21" viewBox="0 0 18 21" fill="none" xmlns="http://www.w3.org/2000/svg">
<g clip-path="url(#clip0_378_1914)">
<path d="M9.80607 16.5743C9.11438 16.5743 8.42322 16.5748 7.73153 16.5743C7.34245 16.5743 7.07453 16.3331 7.07133 15.9824C7.06759 15.6232 7.33712 15.3777 7.73793 15.3772C9.12078 15.3772 10.5042 15.3767 11.887 15.3772C12.2804 15.3772 12.5408 15.6136 12.5435 15.9685C12.5462 16.3341 12.2852 16.5732 11.8806 16.5738C11.1889 16.5743 10.4978 16.5738 9.80607 16.5738V16.5743Z" fill="#031A61"/>
<path d="M9.80503 7.38719C10.4973 7.38719 11.1889 7.38666 11.8812 7.38719C12.2606 7.38773 12.5387 7.64498 12.5355 7.98922C12.5323 8.33453 12.2564 8.58324 11.8726 8.58378C10.4887 8.58431 9.10479 8.58431 7.72088 8.58378C7.33607 8.58378 7.06868 8.33347 7.07081 7.98122C7.07295 7.63057 7.34087 7.38773 7.72888 7.38719C8.42111 7.38613 9.1128 7.38719 9.80503 7.38719Z" fill="#031A61"/>
<path d="M9.79645 12.5778C9.11116 12.5778 8.42587 12.5778 7.74058 12.5778C7.33816 12.5778 7.06864 12.3339 7.07131 11.9747C7.07398 11.6241 7.34137 11.3813 7.72991 11.3813C9.11383 11.3807 10.4977 11.3807 11.8817 11.3813C12.2611 11.3813 12.5392 11.6396 12.5355 11.9838C12.5317 12.3291 12.2563 12.5773 11.8721 12.5778C11.1798 12.5789 10.4881 12.5778 9.79591 12.5778H9.79645Z" fill="#031A61"/>
<path d="M3.73104 12.0442C4.20017 11.573 4.64208 11.1214 5.09307 10.679C5.45386 10.3246 5.98757 10.4543 6.12367 10.9218C6.18718 11.1401 6.13168 11.336 5.97797 11.4924C5.37434 12.1035 4.76911 12.7124 4.15534 13.3134C3.90983 13.5536 3.58213 13.553 3.32808 13.3177C3.05962 13.069 2.80077 12.809 2.551 12.5416C2.32577 12.3004 2.33965 11.9375 2.56327 11.7112C2.79223 11.4796 3.15943 11.4731 3.40867 11.7032C3.51595 11.8025 3.60988 11.9156 3.73104 12.0448V12.0442Z" fill="#031A61"/>
<path d="M3.72021 16.0457C4.19041 15.575 4.63233 15.1325 5.07424 14.6901C5.24396 14.5203 5.4377 14.4269 5.68588 14.491C6.13153 14.6063 6.31139 15.1341 5.99223 15.4666C5.3886 16.0959 4.76682 16.708 4.14345 17.3175C3.91181 17.5438 3.58892 17.5465 3.34768 17.3271C3.06748 17.072 2.79849 16.8025 2.54124 16.5244C2.31921 16.2837 2.34483 15.9155 2.5738 15.695C2.80222 15.4757 3.16355 15.4709 3.40479 15.695C3.5158 15.798 3.6092 15.9208 3.72021 16.0457Z" fill="#031A61"/>
<path d="M3.73517 7.74102C4.1963 7.27829 4.62754 6.83585 5.07212 6.40674C5.17192 6.31014 5.30855 6.22688 5.44198 6.19539C5.70564 6.13348 5.94474 6.25997 6.06643 6.48093C6.20039 6.72377 6.1737 6.98902 5.97303 7.19717C5.68749 7.49498 5.39181 7.78265 5.09987 8.07459C4.80366 8.37134 4.50959 8.67022 4.20964 8.96323C3.90115 9.26531 3.57239 9.2621 3.26497 8.95842C3.03761 8.73373 2.81131 8.5085 2.58769 8.28061C2.33311 8.02015 2.3251 7.64495 2.5642 7.40638C2.80277 7.16835 3.16089 7.17048 3.42401 7.41759C3.52542 7.51259 3.61722 7.6188 3.7341 7.74156L3.73517 7.74102Z" fill="#031A61"/>
<path d="M13.6406 19.3436C13.6406 19.6751 13.6054 19.7103 13.2761 19.7103C9.40189 19.7103 5.52766 19.7103 1.65344 19.7103C1.32414 19.7103 1.29052 19.6767 1.29052 19.3426C1.29052 16.8395 1.29052 14.3364 1.29052 11.8338C1.29052 9.33119 1.29052 6.84089 1.29052 4.34471C1.29052 3.98552 1.3172 3.9583 1.67479 3.9583C2.00623 3.9583 2.3382 3.9583 2.66963 3.9583C2.66963 3.52867 2.66963 3.09956 2.66963 2.66992C2.32432 2.66992 1.97954 2.66992 1.63423 2.66992C1.47572 2.66992 1.3124 2.67633 1.15922 2.71315C0.441914 2.88554 0.000533713 3.4769 0 4.25612C0 9.2949 0 14.3342 0 19.3735C0 20.378 0.622843 20.9992 1.6337 20.9998C5.52126 21.0008 9.40882 21.0008 13.2964 20.9982C13.4549 20.9982 13.6182 20.9912 13.7714 20.9544C14.4844 20.7831 14.929 20.1965 14.9296 19.4328C14.9296 19.065 14.9296 18.6973 14.9296 18.3301C14.4999 18.3301 14.0697 18.3301 13.6401 18.3301C13.6401 18.668 13.6401 19.0058 13.6401 19.3436H13.6406Z" fill="#031A61"/>
<path d="M13.2771 3.958C13.6059 3.958 13.6406 3.99216 13.6406 4.3252C13.6406 8.56394 13.6406 12.8022 13.6406 17.0409C14.0708 17.0409 14.5004 17.0409 14.9306 17.0409C14.9306 15.3085 14.9306 13.576 14.9306 11.8431C14.9306 9.33356 14.9306 6.82404 14.9306 4.31452C14.9306 3.28819 14.3173 2.66908 13.2963 2.66855C10.1837 2.66748 7.07111 2.66802 3.9585 2.66908C3.9585 3.09872 3.9585 3.52836 3.9585 3.958C7.06471 3.958 10.1709 3.958 13.2771 3.958Z" fill="#031A61"/>
<path d="M17.5985 9.17482C17.5985 6.6653 17.5985 4.15579 17.5985 1.64627C17.5985 0.619937 16.9853 0.00083022 15.9643 0.000296507C12.0772 -0.000237206 8.18967 -0.000237206 4.30211 0.00189765C4.14359 0.00189765 3.98028 0.0083022 3.8271 0.0451284C3.11033 0.216984 2.66895 0.808338 2.66895 1.58702C2.66895 1.94781 2.66895 2.30914 2.66895 2.66993C3.09858 2.66993 3.52876 2.66993 3.9584 2.66993C3.9584 2.33849 3.9584 2.00759 3.9584 1.67615C3.9584 1.31697 3.98508 1.28975 4.34267 1.28975C8.21049 1.28975 12.0778 1.28975 15.9456 1.28975C16.2744 1.28975 16.309 1.3239 16.309 1.65694C16.309 6.66317 16.309 11.6689 16.309 16.6751C16.309 17.0065 16.2738 17.0417 15.9445 17.0417C15.6067 17.0417 15.2683 17.0417 14.9305 17.0417C14.9305 17.4714 14.9305 17.9005 14.9305 18.3301C15.2758 18.3301 15.6206 18.3301 15.9659 18.3301C16.1244 18.3301 16.2877 18.3232 16.4409 18.2864C17.1539 18.115 17.5985 17.5285 17.599 16.7648C17.6006 14.235 17.5996 11.7057 17.5996 9.17589L17.5985 9.17482Z" fill="#031A61"/>
<path d="M13.6407 17.041C13.6407 17.4707 13.6407 17.9003 13.6407 18.3299C14.0703 18.3299 14.5005 18.3299 14.9301 18.3299C14.9301 17.9003 14.9301 17.4712 14.9301 17.0415C14.4999 17.0415 14.0703 17.0415 13.6401 17.0415L13.6407 17.041Z" fill="#031A61"/>
<path d="M3.9584 3.95884C3.9584 3.5292 3.9584 3.09956 3.9584 2.66992C3.52876 2.66992 3.09858 2.66992 2.66895 2.66992C2.66895 3.09956 2.66895 3.52867 2.66895 3.9583C3.09858 3.9583 3.52876 3.9583 3.9584 3.9583V3.95884Z" fill="#031A61"/>
</g>
<defs>
<clipPath id="clip0_378_1914">
<rect width="17.5992" height="21" fill="white"/>
</clipPath>
</defs>
</svg>
