<svg width="175" height="52" viewBox="0 0 175 52" fill="none" xmlns="http://www.w3.org/2000/svg">
<g clip-path="url(#clip0_378_1878)">
<path d="M78.183 0L91.4821 33.6518H85.6469L83.017 26.7811H67.8016L65.1717 33.6518H59.3364L72.5837 0H78.183ZM81.1467 21.8035L75.4035 6.77939L69.6603 21.8035H81.1409H81.1467Z" fill="#000C66"/>
<path d="M91.2402 21.3297C91.2402 12.8455 97.4093 8.5293 103.296 8.5293C107.843 8.5293 110.996 10.9925 111.905 12.9368H112.049V9.00254H117.309V33.6512H112.049V29.717H111.905C110.996 31.6613 107.837 34.1245 103.296 34.1245C97.4093 34.1245 91.2402 29.8082 91.2402 21.3297ZM104.303 29.3863C108.32 29.3863 112.199 26.6381 112.199 21.3297C112.199 16.0214 108.326 13.2732 104.303 13.2732C100.281 13.2732 96.4597 16.0214 96.4597 21.3297C96.4597 26.6381 100.333 29.3863 104.303 29.3863Z" fill="#000C66"/>
<path d="M122.569 9.0084H127.829V15.3602C128.692 11.6597 131.178 8.53516 135.724 8.53516C136.3 8.53516 136.777 8.58077 137.301 8.72331V13.7009C136.777 13.604 136.346 13.5584 135.77 13.5584C131.034 13.5584 127.829 16.9738 127.829 22.1395V33.6571H122.569V9.0084Z" fill="#000C66"/>
<path d="M139.649 9.00781H145.052L152.608 27.3504L160.118 9.00781H165.574L155.048 33.6565H150.122L139.643 9.00781H139.649Z" fill="#000C66"/>
<path d="M174.424 0H169.165V4.69254H174.424V0Z" fill="url(#paint0_linear_378_1878)"/>
<path d="M174.424 9.00781H169.165V33.6565H174.424V9.00781Z" fill="#000C66"/>
<path d="M62.7951 41.6735H59.9062V40.8125H66.5932V41.6735H63.7043V51.1726H62.7893V41.6735H62.7951Z" fill="#0000FF"/>
<path d="M70.6616 47.3642C70.6616 44.8269 72.5319 43.4414 74.4482 43.4414C76.3645 43.4414 78.3499 44.844 78.1024 47.7006H71.5191C71.6687 49.5366 73.0498 50.5287 74.6554 50.5287C75.6279 50.5287 76.5256 50.1638 77.0838 49.5081L77.5557 49.987C76.8652 50.8309 75.743 51.3155 74.5518 51.3155C72.5204 51.3155 70.6674 49.9129 70.6674 47.3642H70.6616ZM77.2853 46.9822C77.2392 45.2032 75.9041 44.2225 74.4424 44.2225C72.9808 44.2225 71.6744 45.169 71.5133 46.9822H77.2853Z" fill="#0000FF"/>
<path d="M83.6499 47.3927C83.6499 44.8554 85.6238 43.4414 87.5804 43.4414C88.9039 43.4414 90.1872 44.0857 90.849 45.3116L90.1412 45.705C89.6233 44.7699 88.6392 44.2625 87.6091 44.2625C86.0956 44.2625 84.5476 45.3686 84.5476 47.3984C84.5476 49.4282 86.0956 50.5059 87.6091 50.5059C88.6392 50.5059 89.629 49.9927 90.1412 49.0633L90.849 49.4568C90.1872 50.6826 88.9039 51.3269 87.5804 51.3269C85.6238 51.3269 83.6499 49.9129 83.6499 47.4041V47.3927Z" fill="#0000FF"/>
<path d="M96.7534 40.8125H97.6511V44.9121C98.0367 44.1708 98.8884 43.441 100.304 43.441C101.938 43.441 103.337 44.4502 103.337 46.7081V51.1726H102.439V46.8107C102.439 45.0774 101.392 44.2564 100.068 44.2564C98.7445 44.2564 97.6511 45.0717 97.6511 46.8107V51.1726H96.7534V40.8125Z" fill="#0000FF"/>
<path d="M109.615 43.584H110.513V44.9125C110.899 44.1712 111.75 43.4414 113.166 43.4414C114.8 43.4414 116.199 44.4506 116.199 46.7085V51.173H115.301V46.8111C115.301 45.0778 114.254 44.2568 112.93 44.2568C111.606 44.2568 110.513 45.0721 110.513 46.8111V51.173H109.615V43.584Z" fill="#0000FF"/>
<path d="M122.103 47.3755C122.103 44.8496 124.077 43.4355 126.051 43.4355C128.025 43.4355 129.998 44.8496 129.998 47.3755C129.998 49.9013 128.025 51.3154 126.051 51.3154C124.077 51.3154 122.103 49.9013 122.103 47.3755ZM126.051 50.5C127.599 50.5 129.101 49.3939 129.101 47.3755C129.101 45.357 127.599 44.2509 126.051 44.2509C124.503 44.2509 123.001 45.357 123.001 47.3755C123.001 49.3939 124.503 50.5 126.051 50.5Z" fill="#0000FF"/>
<path d="M135.903 40.8125H136.801V51.1726H135.903V40.8125Z" fill="#0000FF"/>
<path d="M142.705 47.3755C142.705 44.7926 144.592 43.4355 146.503 43.4355C147.947 43.4355 149.121 44.2224 149.564 45.2031H149.61V43.5838H150.508V51.1728H149.61V49.5535H149.564C149.121 50.5285 147.947 51.3211 146.503 51.3211C144.586 51.3211 142.705 49.9641 142.705 47.3812V47.3755ZM146.624 50.5C148.126 50.5 149.639 49.4623 149.639 47.3755C149.639 45.2886 148.12 44.2509 146.624 44.2509C145.127 44.2509 143.602 45.2715 143.602 47.3755C143.602 49.4794 145.122 50.5 146.624 50.5Z" fill="#0000FF"/>
<path d="M157.684 40.8123V45.2027H157.73C158.173 44.2277 159.353 43.4351 160.791 43.4351C162.708 43.4351 164.589 44.7922 164.589 47.3751C164.589 49.958 162.702 51.315 160.791 51.315C159.347 51.315 158.173 50.5281 157.73 49.5474H157.684V51.1667H156.786V40.8066H157.684V40.8123ZM160.676 50.4996C162.178 50.4996 163.692 49.479 163.692 47.3751C163.692 45.2711 162.178 44.2505 160.676 44.2505C159.174 44.2505 157.655 45.2882 157.655 47.3751C157.655 49.4619 159.174 50.4996 160.676 50.4996Z" fill="#0000FF"/>
<path d="M169.832 49.3028L170.615 49.0861C170.851 50.0326 171.558 50.5458 172.456 50.5458C173.279 50.5458 174.108 50.1353 174.108 49.1888C174.108 48.4133 173.578 48.0655 172.577 47.6436L171.99 47.4098C170.724 46.8967 170.206 46.1668 170.206 45.3401C170.206 44.2168 171.161 43.4414 172.427 43.4414C173.578 43.4414 174.447 44.0686 174.712 45.0322L173.993 45.266C173.745 44.6217 173.273 44.1997 172.462 44.1997C171.725 44.1997 171.092 44.5818 171.092 45.3401C171.092 45.9103 171.443 46.3493 172.347 46.7085L172.865 46.9138C174.188 47.4554 175.017 47.9629 175.017 49.1888C175.017 50.6598 173.734 51.3212 172.468 51.3212C171.069 51.3212 170.085 50.5458 169.849 49.3085L169.832 49.3028Z" fill="#0000FF"/>
<path d="M26.4199 20.9761L11.521 47.4266C10.2723 49.6446 12.7986 52.0507 15.3767 51.0985L27.1795 46.7481V20.5371C26.886 20.5371 26.5868 20.6854 26.4199 20.9761Z" fill="url(#paint1_linear_378_1878)"/>
<path d="M42.8382 47.4324L27.9393 20.982C27.7724 20.6855 27.4789 20.543 27.1797 20.543V46.7539L38.9825 51.1044C41.5606 52.0566 44.087 49.6504 42.8382 47.4324Z" fill="url(#paint2_linear_378_1878)"/>
<path d="M41.8999 4.28772C37.6587 1.57368 32.606 0 27.1794 0C12.1712 0 0 12.0592 0 26.9294C0 33.9996 2.75074 40.4368 7.2509 45.2377L27.1794 12.3158C27.2599 12.1847 32.3298 3.9 41.8941 4.28772H41.8999Z" fill="url(#paint3_radial_378_1878)"/>
<path d="M54.3586 26.9299C54.3586 17.4307 49.3923 9.07768 41.8939 4.28821C32.3296 3.90619 27.254 12.1908 27.1792 12.3163L47.1192 45.2268C51.6136 40.4202 54.3586 33.9943 54.3586 26.9299Z" fill="url(#paint4_radial_378_1878)"/>
</g>
<defs>
<linearGradient id="paint0_linear_378_1878" x1="169.792" y1="0.233772" x2="173.661" y2="4.38613" gradientUnits="userSpaceOnUse">
<stop stop-color="#0096FF"/>
<stop offset="0.1" stop-color="#0096FF"/>
<stop offset="0.18" stop-color="#1680FF"/>
<stop offset="0.39" stop-color="#4D49FF"/>
<stop offset="0.57" stop-color="#7521FF"/>
<stop offset="0.71" stop-color="#8D09FF"/>
<stop offset="0.8" stop-color="#9600FF"/>
<stop offset="1" stop-color="#9600FF"/>
</linearGradient>
<linearGradient id="paint1_linear_378_1878" x1="27.3176" y1="32.9612" x2="18.4655" y2="48.7682" gradientUnits="userSpaceOnUse">
<stop stop-color="#0C8EE4"/>
<stop offset="1" stop-color="#0C3BCC"/>
</linearGradient>
<linearGradient id="paint2_linear_378_1878" x1="26.6963" y1="32.4824" x2="37.8256" y2="50.5921" gradientUnits="userSpaceOnUse">
<stop stop-color="#023BB0"/>
<stop offset="1" stop-color="#0053C3"/>
</linearGradient>
<radialGradient id="paint3_radial_378_1878" cx="0" cy="0" r="1" gradientUnits="userSpaceOnUse" gradientTransform="translate(19.3185 13.4904) scale(25.4069 25.1732)">
<stop stop-color="#007CFF"/>
<stop offset="1" stop-color="#0042A8"/>
</radialGradient>
<radialGradient id="paint4_radial_378_1878" cx="0" cy="0" r="1" gradientUnits="userSpaceOnUse" gradientTransform="translate(40.5704 20.5781) scale(13.4429 13.3193)">
<stop stop-color="#007CFF"/>
<stop offset="1" stop-color="#0042A8"/>
</radialGradient>
<clipPath id="clip0_378_1878">
<rect width="175" height="51.3158" fill="white"/>
</clipPath>
</defs>
</svg>
