<svg width="17" height="21" viewBox="0 0 17 21" fill="none" xmlns="http://www.w3.org/2000/svg">
<g clip-path="url(#clip0_378_1904)">
<path d="M5.31301 20.9998C5.08753 20.8525 4.84356 20.7268 4.64087 20.5536C4.09072 20.084 3.55782 19.5941 3.00089 19.0974C2.82962 19.2466 2.66143 19.392 2.49448 19.5393C2.22279 19.779 1.95357 20.0206 1.68188 20.2597C1.36953 20.5345 1.01837 20.6331 0.622233 20.4704C0.237188 20.3127 0.0406608 20.0138 0.0104732 19.6028C0.00492858 19.5282 0.00184822 19.453 0.00184822 19.3778C0.000616072 13.4608 0.00123214 7.5443 0 1.62723C0 1.31911 0.0394286 1.02763 0.255054 0.787302C0.631474 0.367647 1.22167 0.349776 1.68188 0.750944C2.06323 1.08309 2.43903 1.42017 2.81792 1.7554C2.87398 1.8047 2.93066 1.85277 2.99781 1.9107C3.44754 1.50953 3.88988 1.11452 4.33222 0.719516C4.48501 0.583329 4.63656 0.445292 4.78996 0.309105C5.24647 -0.0957605 5.74857 -0.10562 6.20693 0.295548C6.76694 0.78607 7.31894 1.28583 7.87464 1.78129C7.91961 1.82134 7.96643 1.85893 8.02249 1.90638C8.548 1.43681 9.06674 0.974021 9.58485 0.510613C9.66618 0.437898 9.74627 0.363333 9.82944 0.292467C10.2872 -0.096993 10.7843 -0.096993 11.2316 0.298629C11.7688 0.773745 12.3011 1.25441 12.8359 1.7326C12.8969 1.78683 12.9579 1.84106 13.0361 1.91008C13.2074 1.76095 13.3755 1.61552 13.5425 1.46824C13.8191 1.22421 14.0927 0.976486 14.3711 0.734922C14.6859 0.460698 15.0439 0.37689 15.4338 0.54389C15.8152 0.707192 16.0019 1.01592 16.0314 1.42449C16.0364 1.49227 16.0357 1.56129 16.0357 1.62908C16.0357 7.54553 16.0357 13.4626 16.037 19.3791C16.037 19.6872 15.9982 19.9787 15.7825 20.2196C15.4074 20.6399 14.8141 20.6584 14.3551 20.2584C13.9744 19.9263 13.5986 19.5886 13.2197 19.2534C13.1636 19.2041 13.1069 19.156 13.0373 19.0968C12.5796 19.506 12.1274 19.9103 11.6752 20.3139C11.507 20.4643 11.3474 20.6257 11.1675 20.7594C11.0339 20.8586 10.8724 20.9215 10.7234 21.001H10.3137C10.0703 20.8328 9.81095 20.683 9.58732 20.492C9.05873 20.0409 8.54739 19.5701 8.01818 19.0981C7.48959 19.5707 6.97825 20.0415 6.44966 20.4926C6.22603 20.6836 5.96604 20.8328 5.7227 21.001H5.31301V20.9998ZM5.50769 20.0089C5.61796 19.9115 5.72023 19.8221 5.82188 19.7322C6.3209 19.2866 6.81807 18.838 7.32017 18.3949C7.76744 17.9999 8.27139 18.0024 8.72112 18.3974C8.96755 18.6137 9.21028 18.8343 9.45486 19.0525C9.81095 19.3698 10.167 19.6872 10.5293 20.0101C11.122 19.4795 11.7023 18.9619 12.2814 18.4418C12.7878 17.987 13.2819 17.9851 13.7932 18.4399C14.161 18.7665 14.5288 19.0925 14.8979 19.4179C14.9342 19.4499 14.9773 19.4752 15.0242 19.5085V1.47132C14.6089 1.83983 14.2239 2.18492 13.8345 2.5257C13.7273 2.61998 13.6177 2.71734 13.4938 2.78513C13.102 3.00081 12.6899 2.9281 12.3097 2.58917C11.7195 2.06229 11.1306 1.53479 10.5299 0.997438C10.419 1.0948 10.3167 1.18416 10.2157 1.27413C9.71669 1.71966 9.21952 2.16828 8.71742 2.61135C8.27077 3.00574 7.76498 3.00328 7.31586 2.60889C7.06943 2.39259 6.8267 2.17198 6.58212 1.95383C6.22603 1.63647 5.86994 1.31911 5.50769 0.996205C4.91503 1.52678 4.33469 2.04442 3.75558 2.5639C3.24917 3.01868 2.75446 3.02053 2.24374 2.56575C1.87594 2.23915 1.50815 1.91254 1.13973 1.58717C1.10277 1.55451 1.05964 1.52925 1.01282 1.49535V19.5263C1.07874 19.4709 1.12002 19.4376 1.15945 19.4025C1.56975 19.042 1.97143 18.671 2.39221 18.3228C2.76062 18.0184 3.22452 18.0221 3.59909 18.3148C3.80301 18.4744 3.99153 18.6544 4.18498 18.8269C4.62239 19.2164 5.05919 19.6077 5.50707 20.0076L5.50769 20.0089Z" fill="#031A61"/>
<path d="M8.01823 10.9942C6.49592 10.9942 4.9736 10.9942 3.45129 10.9942C3.15988 10.9942 2.96705 10.8771 2.89805 10.6633C2.80071 10.362 2.9917 10.0582 3.30774 10.0169C3.36134 10.0101 3.41679 10.0119 3.47162 10.0119C6.50269 10.0119 9.53377 10.0119 12.5642 10.0119C12.8747 10.0119 13.0669 10.1235 13.1378 10.3423C13.2357 10.6442 13.0454 10.9462 12.7281 10.9887C12.661 10.9979 12.592 10.9942 12.5236 10.9942C11.0216 10.9942 9.5196 10.9942 8.01823 10.9942Z" fill="#031A61"/>
<path d="M8.01513 12.9622C9.53067 12.9622 11.0462 12.9634 12.5617 12.9609C12.7706 12.9609 12.9554 12.9954 13.0805 13.1828C13.2542 13.4422 13.1427 13.8021 12.8482 13.9056C12.7669 13.9346 12.6745 13.9444 12.5876 13.9444C9.54299 13.9463 6.49836 13.9481 3.45373 13.9395C3.30341 13.9395 3.1303 13.873 3.01016 13.7818C2.86169 13.669 2.83705 13.4786 2.89865 13.2962C2.96088 13.1131 3.09456 13.0028 3.28493 12.9714C3.36502 12.9579 3.44819 12.9622 3.53013 12.9622C5.02534 12.9622 6.51993 12.9622 8.01513 12.9622Z" fill="#031A61"/>
<path d="M5.8053 8.04372C4.99948 8.04372 4.19427 8.04372 3.38845 8.04372C3.17837 8.04372 3.01634 7.95683 2.92331 7.76703C2.83521 7.58709 2.83953 7.39113 2.9843 7.25679C3.08965 7.15881 3.25291 7.06945 3.39091 7.06822C5.00194 7.05528 6.61297 7.05775 8.22462 7.06206C8.53019 7.06268 8.74951 7.28144 8.74828 7.55443C8.74704 7.82804 8.52711 8.04064 8.22215 8.04249C7.41633 8.0468 6.61112 8.04372 5.8053 8.04372Z" fill="#031A61"/>
</g>
<defs>
<clipPath id="clip0_378_1904">
<rect width="16.0364" height="21" fill="white"/>
</clipPath>
</defs>
</svg>
