<svg width="18" height="21" viewBox="0 0 18 21" fill="none" xmlns="http://www.w3.org/2000/svg">
<g clip-path="url(#clip0_378_1815)">
<path d="M17.2239 13.7609V19.0655C17.1751 19.1838 17.0836 19.2488 16.9657 19.2927C15.8255 19.7181 14.6857 20.1452 13.5463 20.5728C13.1707 20.714 12.7965 20.8579 12.4213 21.0008H12.2779C12.2488 20.9874 12.2196 20.973 12.1901 20.9605C10.8871 20.4016 9.58506 19.8418 8.28122 19.2855C8.11717 19.2156 8.0468 19.1071 8.04725 18.9274C8.05084 17.2614 8.05218 15.5954 8.04591 13.9294C8.04501 13.721 8.12793 13.6054 8.31214 13.5269C9.60254 12.9774 10.892 12.4248 12.1802 11.8699C12.2923 11.8219 12.394 11.8197 12.5074 11.8623C13.9842 12.4181 15.4615 12.9729 16.9397 13.5242C17.0657 13.5713 17.1679 13.6354 17.2244 13.7604L17.2239 13.7609ZM15.5032 14.6779C15.5032 14.7156 15.5032 14.7479 15.5032 14.7806C15.5032 15.3359 15.5032 15.8912 15.5032 16.4466C15.5032 16.6214 15.4436 16.7088 15.2782 16.7711C14.9192 16.9073 14.5597 17.0431 14.1998 17.1763C13.9695 17.2614 13.7839 17.1296 13.7839 16.8831C13.7834 16.3995 13.7839 15.9159 13.7839 15.4318V15.3225C13.3948 15.4681 13.0166 15.6102 12.6419 15.7505V20.2954C13.9842 19.792 15.3177 19.2918 16.6475 18.7934V14.249C16.2625 14.3933 15.8842 14.535 15.5037 14.6775L15.5032 14.6779ZM12.0587 20.2707C12.0605 20.2384 12.0632 20.2156 12.0632 20.1927C12.0632 18.736 12.0632 17.2789 12.065 15.8222C12.065 15.7617 12.0457 15.7348 11.9906 15.7111C10.9445 15.2651 9.89881 14.8164 8.85358 14.3682C8.78052 14.3368 8.70746 14.3064 8.62679 14.2727C8.62499 14.3073 8.6223 14.3301 8.6223 14.353C8.6223 15.8097 8.6223 17.2668 8.62051 18.7235C8.62051 18.784 8.63934 18.8109 8.69491 18.8346C9.77958 19.2972 10.8629 19.7624 11.9467 20.2268C11.9812 20.2416 12.0171 20.2541 12.0587 20.2703V20.2707ZM9.07544 13.8304C9.10234 13.8447 9.10996 13.8496 9.11802 13.8532C10.1803 14.3086 11.2421 14.7644 12.3052 15.2176C12.3384 15.2315 12.3868 15.2274 12.4222 15.2149C12.6324 15.14 12.8413 15.0603 13.0502 14.9823C13.1196 14.9563 13.1887 14.9294 13.2729 14.8971C13.2286 14.8774 13.2017 14.8648 13.1748 14.8536C12.8803 14.7322 12.584 14.6143 12.2918 14.487C12.2214 14.4565 12.1475 14.4059 12.1058 14.3436C12.0027 14.1903 12.078 14.0038 12.2654 13.9231C12.6208 13.7699 12.9794 13.6228 13.3334 13.4669C13.4495 13.4158 13.5522 13.4176 13.6669 13.47C14.1573 13.6937 14.6507 13.9115 15.142 14.1334C15.1976 14.1585 15.2451 14.1616 15.3029 14.1392C15.5445 14.0455 15.7878 13.9568 16.0299 13.8653C16.05 13.8577 16.0684 13.8456 16.0967 13.8308C16.0666 13.8169 16.0487 13.8075 16.0299 13.8003C14.8282 13.3503 13.6266 12.8999 12.424 12.453C12.3805 12.4369 12.3178 12.4423 12.2739 12.4611C11.3147 12.869 10.3564 13.28 9.3986 13.6905C9.29552 13.7344 9.19332 13.7797 9.075 13.8313L9.07544 13.8304ZM14.9268 16.2875V14.8949C14.7534 14.9599 14.588 15.0248 14.4199 15.0831C14.3675 15.1015 14.3549 15.1279 14.3554 15.1799C14.3572 15.5977 14.3563 16.0149 14.3567 16.4327C14.3567 16.4519 14.3594 16.4712 14.3621 16.4999C14.5562 16.4273 14.7422 16.3574 14.9273 16.2884L14.9268 16.2875ZM14.4549 14.4547C14.1357 14.3122 13.8372 14.1782 13.5378 14.046C13.5181 14.037 13.4899 14.0312 13.4715 14.0383C13.3505 14.0867 13.2313 14.1392 13.0959 14.1974C13.4226 14.3319 13.7324 14.4601 14.0425 14.586C14.06 14.5932 14.0842 14.5923 14.1021 14.586C14.2137 14.5462 14.3244 14.5036 14.4549 14.4547Z" fill="#031A61"/>
<path d="M10.9152 18.7951C10.9138 19.0345 10.7099 19.1681 10.5096 19.0869C10.2698 18.9897 10.0327 18.8857 9.79421 18.7844C9.64899 18.7225 9.50287 18.6638 9.35989 18.597C9.23619 18.5397 9.17523 18.4155 9.19809 18.2882C9.2205 18.1623 9.32404 18.0632 9.4576 18.0552C9.51184 18.052 9.571 18.065 9.62165 18.0861C9.98694 18.2385 10.3504 18.3944 10.7148 18.5491C10.8385 18.6015 10.9116 18.6894 10.9152 18.7951Z" fill="#031A61"/>
<path d="M6.68593 16.1715C5.10957 16.1715 3.53321 16.1715 1.95641 16.1715C1.34012 16.1715 1.00351 15.8345 1.00441 15.2177C1.01024 11.1426 1.02279 7.06704 1.01606 2.99192C1.01517 2.32767 1.45665 1.96865 2.01333 2.00944C2.22937 2.02513 2.4472 2.01213 2.66951 2.01213C2.68654 2.15107 2.69103 2.2694 2.71702 2.38235C2.80442 2.75705 3.13251 3.01791 3.51887 3.01791C5.53716 3.01926 7.55501 3.01971 9.5733 3.01791C10.0269 3.01791 10.3769 2.67817 10.4043 2.22279C10.4079 2.16183 10.4106 2.10087 10.415 2.00854C10.7875 2.03723 11.1613 1.94983 11.5239 2.07084C11.865 2.18469 12.0739 2.4944 12.0761 2.87045C12.0792 3.35676 12.077 3.84307 12.0761 4.32938C12.0725 6.53547 12.0689 8.74111 12.0658 10.9472H13.0783C13.0796 8.27004 13.081 5.59288 13.0819 2.91527C13.0819 1.79699 12.2912 1.00769 11.173 1.00634C10.9233 1.00634 10.6737 1.00634 10.4159 1.00634C10.411 0.920736 10.4079 0.854849 10.4034 0.788962C10.3747 0.335373 10.0237 0.00145668 9.56657 0.00100847C7.55411 -0.000336158 5.5412 -0.000336158 3.52873 0.00100847C3.12355 0.00100847 2.80039 0.262315 2.71209 0.659878C2.68834 0.767 2.6852 0.879053 2.67041 1.00679C2.4221 1.00679 2.172 1.00679 1.92235 1.00679C0.818403 1.00814 0.00803914 1.79968 0.0062463 2.89959C0.000867773 7.0536 -0.00271791 11.2072 0.00266061 15.3612C0.00355703 16.0949 0.367504 16.6363 1.01382 16.977C1.18773 17.0689 1.38718 17.1123 1.57498 17.1782H7.16596V16.1724C7.00595 16.1724 6.84549 16.1724 6.68548 16.1724L6.68593 16.1715ZM3.7107 1.0162H9.38863V2.00361H3.7107V1.0162Z" fill="#031A61"/>
<path d="M10.2436 5.70357C9.0814 5.70313 7.91919 5.70313 6.75699 5.70357C6.43248 5.70357 6.20748 5.9102 6.20703 6.20512C6.20703 6.50049 6.43158 6.70756 6.75564 6.70801C7.33697 6.70891 7.91785 6.70801 8.49918 6.70801C9.08051 6.70801 9.66139 6.70846 10.2427 6.70801C10.5636 6.70801 10.7958 6.49556 10.7963 6.20602C10.7967 5.91647 10.5641 5.70357 10.2436 5.70312V5.70357Z" fill="#031A61"/>
<path d="M10.2383 9.05904C9.65693 9.05859 9.07605 9.05904 8.49472 9.05904C7.91339 9.05904 7.34372 9.05904 6.76821 9.05904C6.43071 9.05904 6.20437 9.26477 6.20705 9.56642C6.20974 9.86089 6.4343 10.0639 6.76149 10.0639C7.91832 10.0644 9.07471 10.0644 10.2315 10.0639C10.5641 10.0639 10.8003 9.85103 10.7963 9.55611C10.7927 9.26612 10.5614 9.05904 10.2383 9.05859V9.05904Z" fill="#031A61"/>
<path d="M4.54682 8.46845C4.16808 8.84001 3.79697 9.21965 3.40164 9.61631C3.30124 9.50874 3.22191 9.41327 3.13227 9.32991C2.9234 9.13628 2.61459 9.14121 2.4223 9.33484C2.22957 9.52891 2.22375 9.83639 2.42096 10.0448C2.62489 10.2599 2.83376 10.4702 3.0498 10.6732C3.2748 10.8847 3.5509 10.8861 3.76962 10.671C4.28014 10.1694 4.78527 9.66203 5.28816 9.15286C5.41769 9.02199 5.46476 8.85749 5.41187 8.67418C5.29892 8.2811 4.84981 8.17084 4.54682 8.468V8.46845Z" fill="#031A61"/>
<path d="M3.01087 7.02434C3.26904 7.27937 3.54514 7.28251 3.8042 7.02927C4.04803 6.79082 4.28692 6.54789 4.52806 6.30675C4.78085 6.05351 5.03723 5.80386 5.28509 5.54614C5.45362 5.37089 5.47648 5.14858 5.36397 4.94464C5.26178 4.75908 5.06188 4.65286 4.84002 4.7044C4.72796 4.7304 4.61277 4.80077 4.52896 4.88144C4.1556 5.24181 3.79345 5.61382 3.39768 6.01049C3.30266 5.90471 3.23005 5.81148 3.14533 5.73125C2.92526 5.52283 2.62451 5.52104 2.42371 5.72094C2.22247 5.92129 2.22874 6.23683 2.44254 6.45511C2.63034 6.64694 2.82038 6.83609 3.01132 7.02434H3.01087Z" fill="#031A61"/>
</g>
<defs>
<clipPath id="clip0_378_1815">
<rect width="17.2238" height="21" fill="white"/>
</clipPath>
</defs>
</svg>
