<svg width="18" height="21" viewBox="0 0 18 21" fill="none" xmlns="http://www.w3.org/2000/svg">
<g clip-path="url(#clip0_378_1909)">
<path d="M15.7695 0C15.8721 0.0323469 15.976 0.0615836 16.078 0.0970408C16.7648 0.337777 17.2226 0.963565 17.26 1.71501C17.2656 1.82387 17.2637 1.93397 17.2637 2.04283C17.2637 7.01182 17.2637 11.9802 17.2637 16.9492C17.2637 17.0244 17.2637 17.0997 17.2631 17.175C17.2593 17.4823 17.1374 17.7286 16.8463 17.8443C16.5776 17.9513 16.3231 17.8823 16.1073 17.6882C15.66 17.2857 15.214 16.8832 14.7674 16.4801C14.7269 16.4434 14.6853 16.4086 14.6448 16.3731C14.4308 16.4689 14.3326 16.6045 14.3369 16.8596C14.3537 17.9053 14.35 18.9509 14.3375 19.9966C14.3357 20.1652 14.2884 20.3543 14.2007 20.4955C13.9892 20.8358 13.5811 20.8706 13.2856 20.6C12.8017 20.1571 12.3196 19.7123 11.8362 19.2688C11.8263 19.2601 11.8132 19.2551 11.7834 19.2383C11.5034 19.4865 11.2179 19.7385 10.9336 19.991C10.6475 20.2454 10.3632 20.5011 10.0764 20.7549C9.71379 21.0759 9.33931 21.0728 8.97976 20.7481C8.42178 20.2442 7.86379 19.741 7.29586 19.2284C6.72916 19.7403 6.16807 20.2498 5.60386 20.7549C5.2356 21.0846 4.87917 21.0802 4.51091 20.7506C4.37841 20.6317 4.24591 20.5142 4.11279 20.396C3.67922 20.0103 3.24565 19.6246 2.80025 19.229C2.32251 19.6595 1.85037 20.0818 1.38259 20.5086C1.19846 20.6765 0.995668 20.7904 0.739381 20.768C0.382321 20.7362 0.0874661 20.4669 0.0215281 20.1123C0.00659878 20.0321 0.000378216 19.9493 0.000378216 19.8679C-0.000243841 14.8516 -0.00148795 9.83533 0.00100027 4.81845C0.00100027 3.80263 0.64234 2.97841 1.61337 2.7358C1.79003 2.69164 1.97665 2.6792 2.15954 2.67111C2.404 2.66053 2.64909 2.66862 2.91969 2.66862C2.91969 2.44779 2.91969 2.245 2.91969 2.04221C2.91969 0.984715 3.50878 0.260642 4.5445 0.0422998C4.58245 0.0342131 4.6179 0.0143073 4.65523 0C8.35957 0 12.0645 0 15.7689 0L15.7695 0ZM13.3634 19.4729V19.2122C13.3634 14.4149 13.3634 9.61699 13.3634 4.81969C13.3634 4.7239 13.3621 4.6281 13.3547 4.53292C13.3118 3.97992 12.9547 3.6496 12.4029 3.6496C8.99283 3.6496 5.58271 3.6496 2.17198 3.6496C1.46843 3.6496 0.981983 4.12797 0.981983 4.8284C0.980739 9.63254 0.981361 14.4373 0.981361 19.2414V19.4834C1.42738 19.0884 1.823 18.7332 2.22485 18.3849C2.5732 18.0826 2.99434 18.0875 3.33833 18.3899C3.59462 18.6157 3.84842 18.8446 4.10346 19.0716C4.41884 19.3522 4.73423 19.6315 5.05707 19.9176C5.12737 19.8585 5.18522 19.8125 5.23996 19.7627C5.73201 19.3186 6.22156 18.8713 6.71796 18.4322C6.81812 18.3438 6.93631 18.263 7.06072 18.2182C7.37734 18.1043 7.64607 18.2151 7.88432 18.434C8.42115 18.9286 8.96048 19.4212 9.50353 19.9182C9.55143 19.8797 9.58938 19.8517 9.62359 19.8212C10.1492 19.3534 10.6755 18.8856 11.2005 18.4172C11.588 18.0707 11.9271 18.0751 12.2966 18.4346C12.6381 18.7668 12.979 19.0996 13.3634 19.4741V19.4729ZM16.2659 16.5952C16.274 16.5056 16.2827 16.4528 16.2827 16.4005C16.2839 11.5354 16.2846 6.67093 16.2833 1.80583C16.2833 1.30196 15.9505 0.980361 15.4436 0.980361C11.993 0.980361 8.54246 0.980361 5.09191 0.980361C5.01664 0.980361 4.94137 0.978495 4.86672 0.983471C4.41947 1.01146 3.96848 1.31876 3.9268 1.67644C3.88947 1.9968 3.91871 2.32525 3.91871 2.66862C4.00953 2.66862 4.08978 2.66862 4.17064 2.66862C6.93133 2.66862 9.69139 2.66862 12.4521 2.66862C13.2091 2.66862 13.7497 3.02257 14.1036 3.68009C14.3002 4.04523 14.3462 4.44024 14.3462 4.84893C14.3438 8.25158 14.345 11.6542 14.345 15.0569C14.345 15.1421 14.345 15.2273 14.345 15.3424C14.7294 15.213 14.9727 15.381 15.2103 15.6173C15.5418 15.9483 15.897 16.255 16.2665 16.5946L16.2659 16.5952Z" fill="#031A61"/>
<path d="M7.29379 11.323C6.31031 11.323 5.32684 11.3211 4.34337 11.3242C4.13561 11.3248 3.96765 11.2645 3.86066 11.0785C3.70825 10.8129 3.83577 10.4695 4.12876 10.3799C4.22456 10.3507 4.33031 10.3451 4.4317 10.3451C6.34391 10.3432 8.25611 10.3438 10.1683 10.3438C10.2361 10.3438 10.3058 10.3438 10.3723 10.355C10.6386 10.4011 10.8215 10.6238 10.8003 10.8707C10.7785 11.1289 10.5801 11.3186 10.3058 11.3192C9.30178 11.323 8.29778 11.3211 7.29379 11.3211V11.323Z" fill="#031A61"/>
<path d="M7.29049 14.4844C6.31386 14.4844 5.33724 14.4857 4.36061 14.4838C4.05207 14.4832 3.85923 14.347 3.80387 14.1037C3.74975 13.8649 3.89344 13.6079 4.13107 13.5383C4.22127 13.5122 4.31955 13.5034 4.4141 13.5034C6.33315 13.5016 8.25219 13.5016 10.1712 13.5028C10.2459 13.5028 10.3218 13.5066 10.3946 13.5215C10.6502 13.5737 10.8219 13.7946 10.7995 14.0341C10.7765 14.2847 10.5868 14.4745 10.3224 14.4788C9.78991 14.4882 9.25681 14.4838 8.72433 14.4844C8.24597 14.4844 7.76823 14.4844 7.28987 14.4844H7.29049Z" fill="#031A61"/>
<path d="M5.83013 8.16575C5.33809 8.16575 4.84604 8.16761 4.35399 8.16513C4.00626 8.16326 3.79539 7.97478 3.79787 7.67557C3.79974 7.39129 4.01622 7.18787 4.34155 7.18663C5.33933 7.18228 6.33711 7.1829 7.33489 7.18663C7.6173 7.18725 7.79396 7.31788 7.86239 7.55364C7.92086 7.75581 7.84622 7.98037 7.65711 8.08364C7.56069 8.13651 7.43815 8.16077 7.3268 8.16264C6.82791 8.17072 6.32902 8.16637 5.83013 8.16637V8.16575Z" fill="#031A61"/>
</g>
<defs>
<clipPath id="clip0_378_1909">
<rect width="17.2646" height="21" fill="white"/>
</clipPath>
</defs>
</svg>
